<svg id="Calque_1" data-name="Calque 1" xmlns="http://www.w3.org/2000/svg" viewBox="0 0 535.89 535.76"><defs><style>.cls-1{fill:#f8a273;}.cls-2{fill:#fff;}</style></defs><path class="cls-1" d="M209.65,425.56q0-71.61,0-143.22A72,72,0,0,1,268.43,211,77,77,0,0,1,283,209.69q142.5,0,285,0c12.34,0,24.14,2.51,35,8.51,19.65,10.85,32,27.26,36.75,49.26a71.41,71.41,0,0,1,1.44,15.23q0,110.47,0,221,0,32.75,0,65.49a72,72,0,0,1-58.66,71,80.35,80.35,0,0,1-15.24,1.35q-142.38,0-284.77,0c-17.82,0-33.82-5.52-47.41-17.17a70.67,70.67,0,0,1-24.49-43.3,78.31,78.31,0,0,1-.93-12.88Z" transform="translate(-157.45 -157.67)"/><path class="cls-1" d="M239.39,679c5,0,9.92,0,14.87,0,1.88,0,1.92,0,1.93,1.83q0,5.4,0,10.8c0,1.68-.06,1.74-1.78,1.74-9.91,0-19.84.25-29.74-.17a67,67,0,0,1-31.52-9.67,71.22,71.22,0,0,1-28.59-31.14,70,70,0,0,1-6.79-26.25c-.6-9.75-.13-19.5-.3-29.24,0-1.85,0-1.89,1.86-1.9,3.52,0,7,0,10.55,0,1.92,0,2,0,2,2.06,0,8.47-.15,17,0,25.42a57.78,57.78,0,0,0,47.67,55.77,41.35,41.35,0,0,0,7.62.75c4.08,0,8.15,0,12.23,0Z" transform="translate(-157.45 -157.67)"/><path class="cls-1" d="M611.63,172.12H597.24c-2.15,0-2.17,0-2.18-2.07,0-3.52,0-7,0-10.55,0-1.69,0-1.75,1.77-1.75,9.91,0,19.85-.29,29.74.19a66.34,66.34,0,0,1,31.25,9.76,71.19,71.19,0,0,1,32,40.14,69,69,0,0,1,3.2,17.37c.58,9.67.13,19.34.29,29,0,1.86,0,1.89-1.85,1.91q-5.28,0-10.56,0c-1.92,0-1.95-.05-1.95-2.05,0-8.24,0-16.48,0-24.71a56.27,56.27,0,0,0-12-34.91A57.13,57.13,0,0,0,631,172.78a62,62,0,0,0-11.71-.66C616.75,172.14,614.19,172.12,611.63,172.12Z" transform="translate(-157.45 -157.67)"/><path class="cls-2" d="M425.59,574.26H325.06a30.86,30.86,0,0,1-5.25-.39,4.53,4.53,0,0,1-4-3.9,27.87,27.87,0,0,1-.52-5.24q0-39.47-.06-78.94a15,15,0,0,0-1-5.62,9.81,9.81,0,0,0-4.37-4.92,26.14,26.14,0,0,0-3.22-1.61c-16-6.59-27.93-17.73-36.79-32.36a91.29,91.29,0,0,1-11.57-31,67.85,67.85,0,0,1-1.21-10.45c-.06-2-.38-4-.35-6,.27-20.67,6.05-39.54,18.71-56,10.8-14.07,24.68-23.76,42.06-28a67.77,67.77,0,0,1,34.8.72c1.23.33,2.47.61,3.71.92,4.8,1.22,8.46-.77,11.43-4.27,2.74-3.23,5.52-6.41,8.56-9.37a71.12,71.12,0,0,1,38.1-19.84c16.36-2.86,31.74.28,46.16,8.41a77.66,77.66,0,0,1,15.78,12,78.88,78.88,0,0,1,7.6,8.62c.05.07.08.14.13.2,3.72,4.85,6.43,5.81,12.29,3.91a70.3,70.3,0,0,1,28.17-3,67.48,67.48,0,0,1,28.67,9.43c15.29,9.08,26.08,22.09,33.22,38.28a88.42,88.42,0,0,1,7.3,27.42c2.37,24.54-3.41,47-18.44,66.68a73.56,73.56,0,0,1-32.73,24.61c-5,1.91-6.8,4.61-6.81,10.07q0,39.23,0,78.45c0,2.25-.23,4.47-.44,6.69-.24,2.52-1.41,3.61-3.89,4.17a20.32,20.32,0,0,1-4.53.35Z" transform="translate(-157.45 -157.67)"/><path class="cls-1" d="M564.37,392.56a46.49,46.49,0,1,1-93,0,46.49,46.49,0,1,1,93,0Z" transform="translate(-157.45 -157.67)"/></svg>